<svg width="32" height="30" fill="none" xmlns="http://www.w3.org/2000/svg"><path d="M20.252.619h-8.504A2.88 2.88 0 008.87 3.495v3.127h-3.5a5.007 5.007 0 00-5.002 5.002V24.38a5.007 5.007 0 005.002 5h21.26a5.008 5.008 0 005.002-5.001V11.624a5.007 5.007 0 00-5.002-5.002h-3.502V3.495A2.88 2.88 0 0020.25.619zm-9.88 2.876c0-.76.617-1.376 1.376-1.376h8.504c.759 0 1.376.617 1.376 1.375v3.128H19.5V5.345c0-.882-.718-1.6-1.6-1.6h-3.802c-.882 0-1.6.718-1.6 1.6v1.277h-2.127V3.495zM18 6.621h-3.966l.065-1.377 3.901.1v1.277zm8.63 21.26H5.37a3.506 3.506 0 01-3.502-3.502v-7.755h9.13v1.377a2.88 2.88 0 002.876 2.876h4.251a2.88 2.88 0 002.877-2.876v-1.377h9.13v7.755a3.507 3.507 0 01-3.503 3.501zM12.498 16.624h7.004v1.377c0 .759-.617 1.376-1.377 1.376h-4.252a1.378 1.378 0 01-1.376-1.376v-1.377zm17.634-5.001v3.501H1.868v-3.501a3.506 3.506 0 013.501-3.502h21.26a3.506 3.506 0 013.503 3.502z" fill="#2F80ED"/></svg>