<svg width="19" height="19" fill="none" xmlns="http://www.w3.org/2000/svg"><path d="M13.842 18.992a5.789 5.789 0 01-4.121-1.706l-7.21-7.21A5.788 5.788 0 01.804 5.954c0-1.557.606-3.02 1.707-4.12.693-.694 1.371-1.03 2.074-1.03 1.234 0 2.21 1.026 3.342 2.216.25.263.512.537.787.813.047.046.458.48.458 1.272s-.665 1.48-.741 1.556a2.205 2.205 0 00-.372 2.617c.266.33 2.253 2.28 2.613 2.537.282.127.595.194.906.194.588 0 1.14-.228 1.556-.644.076-.075.764-.742 1.556-.742s1.226.412 1.273.459c.275.275.55.535.812.786 1.181 1.124 2.202 2.094 2.217 3.316.009.712-.328 1.4-1.03 2.101a5.789 5.789 0 01-4.12 1.706zM4.585 2.005c-.368 0-.77.222-1.226.678a4.597 4.597 0 00-1.355 3.272c0 1.236.481 2.398 1.355 3.272l7.21 7.211a4.597 4.597 0 003.273 1.355 4.597 4.597 0 003.272-1.355c.461-.46.683-.866.678-1.237-.008-.717-.859-1.525-1.843-2.462-.27-.257-.552-.525-.834-.807-.002 0-.145-.107-.425-.107-.211 0-.547.233-.708.391a3.374 3.374 0 01-2.403.995c-.495 0-.993-.11-1.44-.32-.45-.21-2.95-2.716-3.109-2.993a3.407 3.407 0 01.553-4.085c.156-.158.39-.495.39-.707 0-.291-.118-.435-.123-.44-.267-.266-.535-.548-.792-.818-.941-.989-1.754-1.843-2.473-1.843z" fill="#fff"/></svg>