<svg width="26" height="32" viewBox="0 0 26 32" fill="none" xmlns="http://www.w3.org/2000/svg">
<path d="M13 10.3999C12.5584 10.3999 12.2 10.7583 12.2 11.1999V19.1999C12.2 19.6415 12.5584 19.9999 13 19.9999C13.4416 19.9999 13.8 19.6415 13.8 19.1999V11.1999C13.8 10.7583 13.4416 10.3999 13 10.3999Z" fill="#2F80ED"/>
<path d="M22.5855 10.7456L24.7663 8.5664C25.0784 8.2544 25.0784 7.7472 24.7663 7.4352C24.4543 7.1232 23.9471 7.1232 23.6351 7.4352L21.4544 9.6144C19.384 7.7872 16.7264 6.624 13.8 6.44V1.6H17.7999C18.2416 1.6 18.6 1.2416 18.6 0.8C18.6 0.3584 18.2416 0 17.7999 0H8.19995C7.75835 0 7.39995 0.3584 7.39995 0.8C7.39995 1.2416 7.75835 1.6 8.19995 1.6H12.2V6.44C5.51515 6.856 0.199951 12.4112 0.199951 19.2C0.199951 26.2576 5.94235 32 13 32C20.0576 32 25.7999 26.2576 25.7999 19.2C25.7999 15.9584 24.5791 13.0032 22.5855 10.7456ZM13 30.4C6.82395 30.4 1.79995 25.3744 1.79995 19.2C1.79995 13.0256 6.82395 8 13 8C19.1759 8 24.1999 13.0256 24.1999 19.2C24.1999 25.3744 19.1759 30.4 13 30.4Z" fill="#2F80ED"/>
</svg>
